<?xml version="1.0" encoding="UTF-8" standalone="no"?>
<svg
   viewBox="0 0 512 512"
   style="height: 512px; width: 512px;"
   version="1.1"
   id="svg6"
   sodipodi:docname="aura.svg"
   inkscape:version="1.1.2 (0a00cf5339, 2022-02-04)"
   xmlns:inkscape="http://www.inkscape.org/namespaces/inkscape"
   xmlns:sodipodi="http://sodipodi.sourceforge.net/DTD/sodipodi-0.dtd"
   xmlns="http://www.w3.org/2000/svg"
   xmlns:svg="http://www.w3.org/2000/svg">
  <defs
     id="defs10" />
  <sodipodi:namedview
     id="namedview8"
     pagecolor="#ffffff"
     bordercolor="#666666"
     borderopacity="1.0"
     inkscape:pageshadow="2"
     inkscape:pageopacity="0.0"
     inkscape:pagecheckerboard="0"
     showgrid="false"
     inkscape:zoom="1.6992188"
     inkscape:cx="255.70575"
     inkscape:cy="256"
     inkscape:window-width="1920"
     inkscape:window-height="1048"
     inkscape:window-x="0"
     inkscape:window-y="0"
     inkscape:window-maximized="1"
     inkscape:current-layer="svg6" />
  <g
     class=""
     id="g4"
     style="fill:#ffffff;fill-opacity:1">
    <path
       d="m 320.938,13.28 c -16.646,34.584 -38.466,60.157 -63.094,60.157 -24.522,0 -47.035,-25.275 -63.656,-59.593 0.366,39.358 -9.71,90.884 -30.938,105.125 -21.228,14.24 -49.64,-12.002 -78.844,-32.126 17.455,34.04 42.095,67.5 29.78,92.28 -12.21,24.576 -59.172,35.96 -92.874,35.626 29.338,19.29 78.842,45.803 78.844,74.188 0.002,28.384 -49.504,53.71 -78.844,73 33.702,-0.333 80.663,11.612 92.876,36.187 12.227,24.61 -9.03,56.31 -33.75,85.563 44.826,-15.413 65.142,-5.735 85.374,10.812 h 31.75 C 154.822,459.086 125.5,386.671 125.5,302.936 125.498,184.316 184.42,88.03 256.906,88.03 c 72.488,0 131.406,96.29 131.406,214.907 0,83.74 -29.317,156.153 -72.062,191.563 h 27.313 c 19.847,-14.62 39.796,-25.65 89.687,-9.28 -26.233,-30.264 -42.2,-62.484 -29.97,-87.095 12.257,-24.665 56.658,-36.612 90.533,-36.188 -29.4,-19.297 -75.344,-44.584 -75.344,-73 0,-28.415 45.943,-54.89 75.342,-74.187 -33.874,0.424 -78.273,-10.962 -90.53,-35.625 -12.315,-24.78 9.982,-58.24 27.437,-92.28 -29.202,20.12 -57.583,46.385 -78.845,32.124 -21.262,-14.263 -31.382,-66.13 -30.938,-105.69 z m -68.97,93.75 c -19.56,2.543 -37.343,25.564 -37.343,55.407 0,16.447 5.67,30.986 14,41.032 l 10.156,12.218 -15.593,2.937 c -10.815,2.035 -18.743,7.737 -25.53,17.063 -6.79,9.325 -11.984,22.344 -15.626,37.343 -6.585,27.128 -8.078,60.24 -8.31,89.47 h 36.093 l 0.656,8.656 9.124,122.563 h 76.187 l 8.095,-122.5 0.563,-8.72 h 34.375 c -0.026,-29.592 -0.44,-63.166 -6.407,-90.5 -3.295,-15.095 -8.287,-28.096 -15.156,-37.313 -6.87,-9.216 -15.133,-14.897 -27.28,-16.78 l -15.94,-2.47 10.064,-12.593 c 7.97,-9.996 13.375,-24.36 13.375,-40.406 -0.002,-31.817 -19.884,-55.313 -41.44,-55.313 -2.54,0 -3.96,-0.103 -4.03,-0.094 h -0.03 z"
       fill="#000000"
       fill-opacity="1"
       id="path2"
       style="fill:#ffffff;fill-opacity:1" />
  </g>
</svg>
